<svg width="39" height="30" viewBox="0 0 39 30" fill="none" xmlns="http://www.w3.org/2000/svg">
<path d="M1.83958 12.7916C1.25437 13.3776 0.925667 14.1718 0.925667 15C0.925667 15.8281 1.25437 16.6224 1.83958 17.2083L13.6229 28.9958C13.9132 29.2861 14.2578 29.5163 14.6371 29.6734C15.0163 29.8305 15.4228 29.9114 15.8333 29.9114C16.2438 29.9114 16.6503 29.8305 17.0296 29.6734C17.4089 29.5163 17.7535 29.2861 18.0438 28.9958C18.334 28.7055 18.5643 28.3609 18.7214 27.9817C18.8785 27.6024 18.9593 27.1959 18.9593 26.7854C18.9593 26.3749 18.8785 25.9684 18.7214 25.5891C18.5643 25.2099 18.334 24.8652 18.0438 24.575L11.5938 18.125H35.625C36.4538 18.125 37.2487 17.7957 37.8347 17.2097C38.4208 16.6236 38.75 15.8288 38.75 15C38.75 14.1712 38.4208 13.3763 37.8347 12.7903C37.2487 12.2042 36.4538 11.875 35.625 11.875H11.5938L18.0438 5.42497C18.6297 4.83873 18.9588 4.04373 18.9586 3.21486C18.9584 2.38599 18.6289 1.59114 18.0427 1.00518C17.4565 0.419217 16.6615 0.0901368 15.8326 0.0903321C15.0037 0.0905275 14.2089 0.419983 13.6229 1.00622L1.83958 12.7916Z" fill="black"/>
</svg>
