<svg width="39" height="30" viewBox="0 0 39 30" fill="none" xmlns="http://www.w3.org/2000/svg">
<path d="M25.375 1.00622L37.1604 12.7916C37.7456 13.3776 38.0743 14.1718 38.0743 15C38.0743 15.8281 37.7456 16.6224 37.1604 17.2083L25.3771 28.9958C24.7908 29.582 23.9957 29.9114 23.1667 29.9114C22.3376 29.9114 21.5425 29.582 20.9562 28.9958C20.37 28.4096 20.0407 27.6145 20.0407 26.7854C20.0407 25.9563 20.37 25.1612 20.9562 24.575L27.4062 18.125H3.375C2.5462 18.125 1.75134 17.7957 1.16529 17.2097C0.57924 16.6236 0.25 15.8288 0.25 15C0.25 14.1712 0.57924 13.3763 1.16529 12.7903C1.75134 12.2042 2.5462 11.875 3.375 11.875H27.4062L20.9583 5.42497C20.3724 4.83873 20.0433 4.04373 20.0435 3.21486C20.0437 2.38599 20.3731 1.59114 20.9594 1.00518C21.5456 0.419217 22.3406 0.0901368 23.1695 0.0903321C23.9984 0.0905275 24.7932 0.419983 25.3792 1.00622H25.375Z" fill="black"/>
</svg>
