<svg width="51" height="51" viewBox="0 0 51 51" fill="none" xmlns="http://www.w3.org/2000/svg">
<path d="M45.867 34.5991C45.867 42.1825 41.3462 46.7033 33.7628 46.7033H31.2837C30.1378 46.7033 29.2003 45.7658 29.2003 44.62V32.5991C29.2003 32.0366 29.6586 31.5575 30.2211 31.5575L33.8878 31.495C34.1795 31.4741 34.4295 31.2658 34.492 30.9741L35.2212 26.995C35.2837 26.62 34.992 26.2658 34.5962 26.2658L30.1586 26.3283C29.5753 26.3283 29.117 25.87 29.0962 25.3075L29.0128 20.2033C29.0128 19.87 29.2836 19.5783 29.6378 19.5783L34.6378 19.495C34.992 19.495 35.2628 19.2242 35.2628 18.87L35.1795 13.8699C35.1795 13.5158 34.9087 13.245 34.5545 13.245L28.9295 13.3283C25.4712 13.3908 22.7212 16.2241 22.7837 19.6825L22.8878 25.4116C22.9087 25.995 22.4504 26.4533 21.867 26.4741L19.367 26.5158C19.0128 26.5158 18.742 26.7866 18.742 27.1408L18.8045 31.0991C18.8045 31.4533 19.0753 31.7241 19.4295 31.7241L21.9295 31.6825C22.5129 31.6825 22.9711 32.1408 22.992 32.7033L23.1795 44.5783C23.2003 45.745 22.2628 46.7033 21.0961 46.7033H16.3045C8.72116 46.7033 4.20033 42.1824 4.20033 34.5783V17.1408C4.20033 9.55745 8.72116 5.03662 16.3045 5.03662H33.7628C41.3462 5.03662 45.867 9.55745 45.867 17.1408V34.5991Z" fill="white"/>
</svg>
