<svg width="42" height="42" viewBox="0 0 42 42" fill="none" xmlns="http://www.w3.org/2000/svg">
<path d="M29.7628 0.0366211H12.3045C4.72116 0.0366211 0.200327 4.55745 0.200327 12.1408V29.5783C0.200327 37.1825 4.72116 41.7033 12.3045 41.7033H29.742C37.3253 41.7033 41.8462 37.1825 41.8462 29.5991V12.1408C41.867 4.55745 37.3462 0.0366211 29.7628 0.0366211ZM21.0337 28.9533C16.5753 28.9533 12.9503 25.3283 12.9503 20.87C12.9503 16.4116 16.5753 12.7866 21.0337 12.7866C25.492 12.7866 29.117 16.4116 29.117 20.87C29.117 25.3283 25.492 28.9533 21.0337 28.9533ZM33.367 10.2033C33.2628 10.4533 33.117 10.6825 32.9295 10.8908C32.7212 11.0783 32.492 11.2241 32.242 11.3283C31.992 11.4325 31.7212 11.495 31.4503 11.495C30.8878 11.495 30.367 11.2866 29.9712 10.8908C29.7837 10.6825 29.6378 10.4533 29.5337 10.2033C29.4295 9.95329 29.367 9.68245 29.367 9.41162C29.367 9.14079 29.4295 8.86995 29.5337 8.61995C29.6378 8.34912 29.7837 8.14079 29.9712 7.93245C30.4503 7.45329 31.1795 7.22412 31.8462 7.36995C31.992 7.39079 32.117 7.43245 32.242 7.49495C32.367 7.53662 32.492 7.59912 32.617 7.68245C32.7212 7.74495 32.8253 7.84912 32.9295 7.93245C33.117 8.14079 33.2628 8.34912 33.367 8.61995C33.4712 8.86995 33.5337 9.14079 33.5337 9.41162C33.5337 9.68245 33.4712 9.95329 33.367 10.2033Z" fill="white"/>
</svg>
