<svg width="42" height="36" viewBox="0 0 42 36" fill="none" xmlns="http://www.w3.org/2000/svg">
<path d="M37.9223 10.8579C37.8724 10.3924 37.8142 10.0193 37.7661 9.7534L41.6921 3.86443C41.939 3.49417 41.9233 3.00798 41.6532 2.65434C41.3831 2.30069 40.9182 2.15769 40.496 2.29841L35.0363 4.11832C34.7477 3.68798 34.3198 3.12036 33.7495 2.55005C32.5943 1.39485 30.7824 0.161621 28.3254 0.161621C25.7784 0.161621 23.8934 0.874496 22.5475 2.04484C21.2154 3.20317 20.5128 4.72139 20.1534 6.15898C19.7944 7.59472 19.7625 9.00768 19.8143 10.0444C19.8294 10.3467 19.8519 10.6203 19.8762 10.8571C17.2613 11.4132 14.5251 10.5614 11.8448 8.97068C8.88916 7.21664 6.1798 4.66789 4.06196 2.55005C3.76823 2.25632 3.32806 2.16519 2.94184 2.31814C2.55563 2.47109 2.29721 2.83889 2.28423 3.25409C2.01881 11.7475 3.76986 22.0278 11.682 27.2408C8.35408 29.0412 5.09128 29.8807 1.11285 30.378C0.65737 30.4349 0.292843 30.7833 0.215344 31.2358C0.137845 31.6882 0.365643 32.138 0.77621 32.3433C11.5235 37.717 25.4502 37.3286 33.3254 26.8283C36.5899 22.4756 37.6839 18.1115 37.9572 14.8315C38.0937 13.1933 38.0259 11.8243 37.9223 10.8579Z" fill="white"/>
</svg>
