<svg width="51" height="51" viewBox="0 0 51 51" fill="none" xmlns="http://www.w3.org/2000/svg">
<path d="M45.8253 24.6412C45.1169 12.5579 34.1378 3.2454 21.492 5.32874C12.7836 6.76624 5.80447 13.8287 4.4503 22.537C3.65863 27.5787 4.70035 32.3495 6.97118 36.287L5.11698 43.1829C4.70032 44.7454 6.13778 46.162 7.67944 45.7245L14.4711 43.8496C17.5545 45.6621 21.1586 46.7037 25.0128 46.7037C36.7628 46.7037 46.5128 36.3496 45.8253 24.6412ZM35.2003 33.6204C35.0128 33.9954 34.7836 34.3496 34.4919 34.6829C33.9711 35.2454 33.4086 35.6621 32.7836 35.9121C32.1586 36.1829 31.4711 36.3079 30.742 36.3079C29.6795 36.3079 28.5336 36.0579 27.3461 35.5371C26.1378 35.0162 24.9503 34.3287 23.7628 33.4745C22.5545 32.5995 21.4295 31.6204 20.3461 30.5579C19.2628 29.4745 18.3044 28.3287 17.4294 27.1412C16.5753 25.9537 15.8878 24.7662 15.3878 23.5787C14.8878 22.3912 14.6378 21.2454 14.6378 20.1621C14.6378 19.4537 14.7628 18.7662 15.0128 18.1412C15.2628 17.4954 15.6587 16.9121 16.2212 16.3912C16.8879 15.7246 17.617 15.4121 18.3878 15.4121C18.6795 15.4121 18.9711 15.4746 19.2419 15.5996C19.5127 15.7246 19.7628 15.9121 19.9503 16.1829L22.3669 19.5995C22.5544 19.8704 22.7003 20.0995 22.7836 20.3287C22.8878 20.5579 22.9295 20.7662 22.9295 20.9745C22.9295 21.2245 22.8462 21.4746 22.7003 21.7246C22.5545 21.9746 22.3669 22.2245 22.1169 22.4745L21.3253 23.3079C21.2003 23.4329 21.1587 23.5579 21.1587 23.7245C21.1587 23.8079 21.1794 23.8912 21.2003 23.9745C21.2419 24.0579 21.2628 24.1204 21.2837 24.1829C21.4712 24.537 21.8044 24.9745 22.2628 25.5162C22.7419 26.0578 23.242 26.6204 23.7837 27.162C24.3462 27.7245 24.8878 28.2245 25.4503 28.7037C25.992 29.162 26.4503 29.4746 26.8044 29.6621C26.8669 29.6829 26.9295 29.7245 26.992 29.7453C27.0753 29.787 27.1587 29.7871 27.2628 29.7871C27.4503 29.7871 27.5754 29.7246 27.7004 29.5996L28.4919 28.8079C28.7628 28.5371 29.0129 28.3496 29.242 28.2246C29.492 28.0787 29.7212 27.9954 29.992 27.9954C30.2003 27.9954 30.4086 28.037 30.6378 28.1412C30.867 28.2454 31.1169 28.3704 31.3669 28.5579L34.8253 31.0162C35.0962 31.2037 35.2836 31.4329 35.4086 31.6829C35.5128 31.9537 35.5753 32.2037 35.5753 32.4954C35.4503 32.8495 35.367 33.2454 35.2003 33.6204Z" fill="white"/>
</svg>
